<svg xmlns="http://www.w3.org/2000/svg" xmlns:xlink="http://www.w3.org/1999/xlink" fill="none" version="1.1" width="21.199951171875" height="20.5999755859375" viewBox="0 0 21.199951171875 20.5999755859375"><path d="M1.5999755859375,2.60000002L6.0999755859375,2.60000002L6.0999755859375,2.59988004Q6.1590580859375,2.59987998,6.2170056859375,2.58835346Q6.2749528859375,2.57682693,6.3295387859375,2.5542168Q6.3841247859375,2.53160673,6.4332503859375,2.49878198Q6.4823765859375,2.46595722,6.5241546859375,2.4241792Q6.5659327859375,2.38240117,6.5987572859375,2.33327544Q6.6315822859375,2.28414971,6.6541924859375,2.22956412Q6.6768025859375,2.17497852,6.6883291859375,2.11703077Q6.6998557859375,2.059083022,6.6998557859375,2Q6.6998557859375,1.940916978,6.6883291859375,1.88296923Q6.6768025859375,1.82502148,6.6541924859375,1.77043588Q6.6315822859375,1.7158502900000001,6.5987577859375,1.66672456Q6.5659327859375,1.61759883,6.5241546859375,1.5758208Q6.4823765859375,1.53404278,6.4332503859375,1.50121802Q6.3841247859375,1.46839321,6.3295392859375,1.44578314Q6.2749533859375,1.42317307,6.2170056859375,1.4116464899999999Q6.1590580859375,1.4001200200000001,6.0999755859375,1.40011996L6.0999755859375,1.39999998L1.5999755859375,1.39999998Q0.9372380959375,1.39999998,0.4685556159375,1.86877877Q-0.00002449406250004671,2.33745512,-0.00002443406249996727,3.0000001000000003L-0.00002443406249996727,19Q-0.00002443406249996727,19.662546,0.46855556593750003,20.131222Q0.9372389659375,20.600002,1.5999755859375,20.600002L10.5999755859375,20.600002L10.5999755859375,20.59988Q10.6590585859375,20.59988,10.7170055859375,20.588352Q10.7749535859375,20.576824,10.8295385859375,20.554214Q10.8841245859375,20.531605,10.9332505859375,20.498781Q10.9823765859375,20.465958,11.0241545859375,20.424179Q11.0659325859375,20.382401,11.0987565859375,20.333275Q11.1315825859375,20.284147,11.1541915859375,20.229563Q11.1768025859375,20.174976,11.1883295859375,20.117029Q11.1998555859375,20.059082,11.1998555859375,20Q11.1998555859375,19.940916,11.1883285859375,19.882967Q11.1768025859375,19.82502,11.1541915859375,19.770433Q11.1315825859375,19.715847,11.0987565859375,19.666721Q11.0659325859375,19.617596,11.0241545859375,19.575819Q10.9823765859375,19.53404,10.9332505859375,19.501215Q10.8841245859375,19.468391,10.8295385859375,19.445782Q10.7749535859375,19.423172,10.7170065859375,19.411646Q10.6590585859375,19.40012,10.5999755859375,19.40012L10.5999755859375,19.4L1.5999755859375,19.4Q1.1999756059375,19.4,1.1999756059375,19L1.1999756059375,2.99999994Q1.1999756059375,2.8344391,1.3171709159375,2.71721971Q1.4343665859375,2.60000002,1.5999755859375,2.60000002ZM19.5999755859375,1.39999998L15.0999765859375,1.39999998L15.0999765859375,1.40011996Q15.0408925859375,1.4001200200000001,14.9829445859375,1.41164654Q14.9249965859375,1.42317307,14.8704105859375,1.4457832000000002Q14.8158245859375,1.46839327,14.7666995859375,1.50121802Q14.7175745859375,1.53404278,14.6757965859375,1.5758208Q14.6340175859375,1.61759883,14.6011925859375,1.66672456Q14.5683675859375,1.7158502900000001,14.5457575859375,1.77043588Q14.5231465859375,1.82502148,14.5116205859375,1.88296923Q14.5000945859375,1.940916978,14.5000955859375,2Q14.5000945859375,2.059083022,14.5116205859375,2.11703077Q14.5231465859375,2.17497852,14.5457575859375,2.22956412Q14.5683675859375,2.28414971,14.6011935859375,2.33327544Q14.6340175859375,2.38240117,14.6757965859375,2.4241792Q14.7175745859375,2.46595722,14.7666995859375,2.49878198Q14.8158245859375,2.53160679,14.8704105859375,2.55421686Q14.9249955859375,2.57682693,14.9829445859375,2.58835351Q15.0408915859375,2.59987998,15.0999755859375,2.59988004L15.0999765859375,2.60000002L19.5999755859375,2.60000002Q19.7655845859375,2.60000002,19.8827795859375,2.71721983Q19.9999775859375,2.83444017,19.9999775859375,3L19.9999775859375,12L20.0000955859375,12Q20.0000955859375,12.059083,20.0116215859375,12.11703Q20.0231475859375,12.174978,20.0457575859375,12.229563Q20.0683665859375,12.284149,20.1011925859375,12.333275Q20.1340155859375,12.382401,20.1757945859375,12.424179Q20.2175715859375,12.465957,20.2666985859375,12.498781Q20.3158225859375,12.531607,20.3704085859375,12.554216Q20.4249955859375,12.576827,20.4829445859375,12.588354Q20.5408915859375,12.59988,20.5999755859375,12.59988Q20.6590575859375,12.59988,20.7170065859375,12.588353Q20.7749515859375,12.576827,20.8295385859375,12.554216Q20.8841225859375,12.531607,20.9332485859375,12.498781Q20.9823765859375,12.465957,21.0241545859375,12.424179Q21.0659335859375,12.382401,21.0987565859375,12.333275Q21.1315805859375,12.284149,21.1541895859375,12.229563Q21.1768015859375,12.174978,21.1883275859375,12.117031Q21.1998555859375,12.059083,21.1998555859375,12L21.1999755859375,12L21.1999755859375,3Q21.1999755859375,2.33745551,20.7313955859375,1.86877869Q20.2627125859375,1.39999998,19.5999755859375,1.39999998Z" fill-rule="evenodd" fill="black" fill-opacity="1"/><rect x="6.199975967407227" y="0.5999755859375" width="8.800000190734863" height="2.799999952316284" rx="1.399999976158142" fill-opacity="0" stroke-opacity="1" stroke="black" fill="none" stroke-width="1.2000000476837158"/><path d="M3.5999755859375,7.6000000199999995L17.5999755859375,7.6000000199999995L17.5999755859375,7.59988004Q17.6590575859375,7.59987998,17.717004585937502,7.58835346Q17.7749525859375,7.57682693,17.8295385859375,7.5542168Q17.8841245859375,7.53160673,17.9332505859375,7.49878198Q17.9823765859375,7.46595722,18.024154585937502,7.4241792Q18.0659325859375,7.38240117,18.0987565859375,7.3332754399999995Q18.1315815859375,7.28414971,18.1541905859375,7.22956412Q18.1768015859375,7.17497852,18.1883275859375,7.11703077Q18.1998545859375,7.059083022,18.1998555859375,7Q18.1998545859375,6.940916978,18.188328585937498,6.88296923Q18.1768015859375,6.82502148,18.1541905859375,6.77043588Q18.1315805859375,6.71585029,18.0987565859375,6.6667245600000005Q18.0659315859375,6.61759883,18.024153585937498,6.5758208Q17.9823755859375,6.53404278,17.9332505859375,6.50121802Q17.884123585937502,6.46839321,17.8295385859375,6.44578314Q17.7749525859375,6.42317307,17.7170055859375,6.41164649Q17.6590575859375,6.40012002,17.5999755859375,6.40011996L17.5999755859375,6.3999999800000005L3.5999755859375,6.3999999800000005L3.5999755859375,6.40011996Q3.5408925639375,6.40012002,3.4829448159375,6.41164654Q3.4249970659375,6.42317307,3.3704114659375,6.4457832Q3.3158258759375,6.46839327,3.2667001459375,6.50121802Q3.2175744159375,6.53404278,3.1757963859375,6.5758208Q3.1340183659375,6.61759883,3.1011936059375,6.6667245600000005Q3.0683687959375,6.71585029,3.0457587259375,6.77043588Q3.0231486559375,6.82502148,3.0116220759375,6.88296923Q3.0000956059375,6.940916978,3.0000955459375,7Q3.0000956059375,7.059083022,3.0116221259375,7.11703077Q3.0231486559375,7.17497852,3.0457587859375,7.22956412Q3.0683688559375,7.28414971,3.1011936059375,7.3332754399999995Q3.1340183659375,7.38240117,3.1757963859375,7.4241792Q3.2175744159375,7.46595722,3.2667001459375,7.49878198Q3.3158258759375,7.53160679,3.3704114659375,7.55421686Q3.4249970659375,7.57682693,3.4829448159375,7.58835351Q3.5408925639375,7.59987998,3.5999755859375,7.59988004L3.5999755859375,7.6000000199999995Z" fill-rule="evenodd" fill="black" fill-opacity="1"/><path d="M3.5999755859375,11.60000002L13.5999755859375,11.60000002L13.5999755859375,11.59988004Q13.6590585859375,11.59987998,13.7170055859375,11.58835346Q13.7749535859375,11.57682693,13.8295385859375,11.5542168Q13.8841245859375,11.53160673,13.9332505859375,11.49878198Q13.9823765859375,11.46595722,14.0241545859375,11.4241792Q14.0659325859375,11.38240117,14.0987565859375,11.33327544Q14.1315825859375,11.28414971,14.1541915859375,11.22956412Q14.1768025859375,11.17497852,14.1883295859375,11.11703077Q14.1998555859375,11.059083022,14.1998555859375,11Q14.1998555859375,10.940916978,14.1883285859375,10.88296923Q14.1768025859375,10.82502148,14.1541915859375,10.77043588Q14.1315825859375,10.71585029,14.0987565859375,10.66672456Q14.0659325859375,10.61759883,14.0241545859375,10.5758208Q13.9823765859375,10.53404278,13.9332505859375,10.50121802Q13.8841245859375,10.46839321,13.8295385859375,10.44578314Q13.7749535859375,10.42317307,13.7170065859375,10.41164649Q13.6590585859375,10.40012002,13.5999755859375,10.40011996L13.5999755859375,10.39999998L3.5999755859375,10.39999998L3.5999755859375,10.40011996Q3.5408925639375,10.40012002,3.4829448159375,10.41164654Q3.4249970659375,10.42317307,3.3704114659375,10.4457832Q3.3158258759375,10.46839327,3.2667001459375,10.50121802Q3.2175744159375,10.53404278,3.1757963859375,10.5758208Q3.1340183659375,10.61759883,3.1011936059375,10.66672456Q3.0683687959375,10.71585029,3.0457587259375,10.77043588Q3.0231486559375,10.82502148,3.0116220759375,10.88296923Q3.0000956059375,10.940916978,3.0000955459375,11Q3.0000956059375,11.059083022,3.0116221259375,11.11703077Q3.0231486559375,11.17497852,3.0457587859375,11.22956412Q3.0683688559375,11.28414971,3.1011936059375,11.33327544Q3.1340183659375,11.38240117,3.1757963859375,11.4241792Q3.2175744159375,11.46595722,3.2667001459375,11.49878198Q3.3158258759375,11.53160679,3.3704114659375,11.55421686Q3.4249970659375,11.57682693,3.4829448159375,11.58835351Q3.5408925639375,11.59987998,3.5999755859375,11.59988004L3.5999755859375,11.60000002Z" fill-rule="evenodd" fill="black" fill-opacity="1"/><path d="M3.5999755859375,15.60000002L9.5999755859375,15.60000002L9.5999755859375,15.59988004Q9.659058585937501,15.59987998,9.717005685937501,15.58835346Q9.7749533859375,15.57682693,9.829538785937501,15.5542168Q9.8841247859375,15.53160673,9.9332503859375,15.49878198Q9.9823760859375,15.46595722,10.0241546859375,15.4241792Q10.0659322859375,15.38240117,10.0987572859375,15.33327544Q10.131582285937501,15.28414971,10.1541919859375,15.22956412Q10.1768021859375,15.17497852,10.1883287859375,15.11703077Q10.199855785937501,15.059083022,10.199855785937501,15Q10.199855785937501,14.940916978,10.1883287859375,14.88296923Q10.1768021859375,14.82502148,10.1541919859375,14.77043588Q10.131582285937501,14.71585029,10.0987567859375,14.66672456Q10.0659322859375,14.61759883,10.0241546859375,14.5758208Q9.9823760859375,14.53404278,9.9332503859375,14.50121802Q9.8841247859375,14.46839321,9.8295392859375,14.44578314Q9.7749538859375,14.42317307,9.717005685937501,14.41164649Q9.659058585937501,14.40012002,9.5999755859375,14.40011996L9.5999755859375,14.39999998L3.5999755859375,14.39999998L3.5999755859375,14.40011996Q3.5408925639375,14.40012002,3.4829448159375,14.41164654Q3.4249970659375,14.42317307,3.3704114659375,14.4457832Q3.3158258759375,14.46839327,3.2667001459375,14.50121802Q3.2175744159375,14.53404278,3.1757963859375,14.5758208Q3.1340183659375,14.61759883,3.1011936059375,14.66672456Q3.0683687959375,14.71585029,3.0457587259375,14.77043588Q3.0231486559375,14.82502148,3.0116220759375,14.88296923Q3.0000956059375,14.940916978,3.0000955459375,15Q3.0000956059375,15.059083022,3.0116221259375,15.11703077Q3.0231486559375,15.17497852,3.0457587859375,15.22956412Q3.0683688559375,15.28414971,3.1011936059375,15.33327544Q3.1340183659375,15.38240117,3.1757963859375,15.4241792Q3.2175744159375,15.46595722,3.2667001459375,15.49878198Q3.3158258759375,15.53160679,3.3704114659375,15.55421686Q3.4249970659375,15.57682693,3.4829448159375,15.58835351Q3.5408925639375,15.59987998,3.5999755859375,15.59988004L3.5999755859375,15.60000002Z" fill-rule="evenodd" fill="black" fill-opacity="1"/><path d="M12.1757482859375,17.5451028596875Q12.0913958559375,17.4607313296875,12.045745665937499,17.3505044596875Q12.0000954859375,17.2402775796875,12.0000955459375,17.1209716796875Q12.0000956059375,17.0618886576875,12.0116221259375,17.0039409096875Q12.0231486559375,16.9459931596875,12.0457587859375,16.8914075596875Q12.0683688559375,16.8368219696875,12.1011936059375,16.7876962396875Q12.1340183659375,16.7385705096875,12.1757963859375,16.6967924796875Q12.2175744159375,16.6550144596875,12.2667001459375,16.6221896996875Q12.3158258759375,16.5893648896875,12.3704114659375,16.5667548196875Q12.4249970659375,16.5441447496875,12.4829448159375,16.5326181696875Q12.5408925639375,16.5210916996875,12.5999755859375,16.5210916396875Q12.7193168059375,16.5210916396875,12.8295711259375,16.5667678096875Q12.9398254759375,16.6124439196875,13.0242028859375,16.6968404996875L13.0242877259375,16.6967556796875L15.8526873859375,19.5257959796875L15.8526022859375,19.5258807796875Q15.9369549859375,19.610252379687502,15.9826051859375,19.7204794796875Q16.0282554859375,19.8307063796875,16.0282551859375,19.9500121796875Q16.0282549859375,20.0090951796875,16.0167283859375,20.0670425796875Q16.0052017859375,20.1249904796875,15.9825915859375,20.1795758796875Q15.9599814859375,20.2341613796875,15.9271564859375,20.2832872796875Q15.8943318859375,20.3324129796875,15.8525540859375,20.3741910796875Q15.8107759859375,20.4159688796875,15.761650285937499,20.4487936796875Q15.712524385937499,20.4816183796875,15.6579391859375,20.5042285796875Q15.6033534859375,20.526838779687502,15.5454058859375,20.5383655796875Q15.4874581859375,20.5498919796875,15.4283752859375,20.5498921796875Q15.3090340859375,20.5498921796875,15.1987795859375,20.5042161796875Q15.0885252859375,20.4585399796875,15.0041477859375,20.3741430796875L15.0040628859375,20.3742279796875L12.1756634459375,17.5451876796875L12.1757482859375,17.5451028596875Z" fill-rule="evenodd" fill="black" fill-opacity="1"/><path d="M20.801469757714845,15.42416632Q20.885837557714844,15.33979258,20.93149755771484,15.2295557Q20.977157157714842,15.11931879,20.977157557714843,15Q20.977157157714842,14.940916978,20.965630057714844,14.88296923Q20.954103457714844,14.82502148,20.931493757714843,14.77043588Q20.908883557714844,14.71585029,20.876059057714844,14.66672456Q20.843234057714845,14.61759883,20.801456457714842,14.5758208Q20.759677857714845,14.53404278,20.710552257714845,14.50121802Q20.661426557714844,14.46839321,20.606841057714846,14.44578314Q20.552255157714843,14.42317307,20.494307557714844,14.41164649Q20.436359857714844,14.40012002,20.377277357714846,14.40011996Q20.257948857714844,14.40012002,20.147704157714845,14.44578671Q20.037459857714843,14.49145341,19.953084957714843,14.57583392L19.953000057714846,14.57574916L15.003296817714844,19.5257616L15.003381487714844,19.5258465Q14.919013137714844,19.610219999999998,14.873353597714845,19.7204566Q14.827694117714843,19.8306932,14.827694117714843,19.9500122Q14.827694177714843,20.0090952,14.839220697714843,20.0670424Q14.850747227714844,20.1249905,14.873357357714843,20.1795759Q14.895967427714844,20.234161399999998,14.928792177714843,20.283287Q14.961616937714844,20.3324132,15.003394957714844,20.3741913Q15.045172987714844,20.4159694,15.094298717714844,20.4487939Q15.143424447714844,20.4816189,15.198010037714845,20.5042286Q15.252595637714844,20.5268388,15.310543387714844,20.5383654Q15.368491135714844,20.5498924,15.427574157714844,20.5498924Q15.546902547714843,20.5498919,15.657146897714844,20.5042253Q15.767391267714844,20.4585586,15.851766587714843,20.374178399999998L15.851851497714843,20.3742633L20.801554157714843,15.42425084L20.801469757714845,15.42416632Z" fill-rule="evenodd" fill="black" fill-opacity="1"/></svg>